<svg xmlns="http://www.w3.org/2000/svg" height="40" viewBox="0 -960 960 960" width="40"><path d="M186.666-120q-27 0-46.833-19.833T120-186.666v-260.001h66.666v260.001h260.001V-120H186.666Zm326.667 0v-66.666h260.001v-260.001H840v260.001q0 27-19.833 46.833T773.334-120H513.333ZM238-272l118.667-154.666 92 124.667 128-167.334 148 197.333H238ZM120-513.333v-260.001q0-27 19.833-46.833T186.666-840h260.001v66.666H186.666v260.001H120Zm653.334 0v-260.001H513.333V-840h260.001q27 0 46.833 19.833T840-773.334v260.001h-66.666Zm-150.667-53.334q-24.267 0-40.133-15.867-15.867-15.866-15.867-40.133 0-24.266 15.867-40.133 15.866-15.867 40.133-15.867 24.266 0 40.133 15.867 15.867 15.867 15.867 40.133 0 24.267-15.867 40.133-15.867 15.867-40.133 15.867Z"/></svg>