<?xml version="1.0" standalone="no"?>
<!DOCTYPE svg PUBLIC "-//W3C//DTD SVG 20010904//EN"
 "http://www.w3.org/TR/2001/REC-SVG-20010904/DTD/svg10.dtd">
<svg version="1.0" xmlns="http://www.w3.org/2000/svg"
 width="300.000000pt" height="300.000000pt" viewBox="0 0 300.000000 300.000000"
 preserveAspectRatio="xMidYMid meet">
<metadata>
Created by potrace 1.14, written by Peter Selinger 2001-2017
</metadata>
<g transform="translate(0.000000,300.000000) scale(0.100000,-0.100000)"
fill="#000000" stroke="none">
<path d="M747 2863 c-4 -3 -36 -7 -72 -9 -36 -2 -71 -6 -78 -11 -6 -4 -21 -9
-32 -10 -10 -2 -23 -9 -27 -16 -6 -9 -8 -8 -8 3 0 13 -1 13 -10 0 -5 -8 -10
-11 -10 -7 0 8 -13 -2 -51 -35 -10 -10 -19 -15 -19 -11 0 4 -13 -7 -29 -25
-17 -17 -34 -32 -40 -32 -5 0 -13 -5 -17 -12 -5 -7 -3 -8 5 -3 9 5 9 1 -1 -14
-7 -12 -19 -21 -26 -21 -7 0 -11 -4 -8 -9 3 -5 0 -11 -8 -14 -9 -4 -12 -14 -9
-28 4 -15 3 -20 -5 -15 -11 6 -18 -19 -13 -46 0 -5 -3 -8 -7 -8 -5 0 -9 -6
-10 -12 -1 -21 -10 -73 -12 -73 -1 0 -3 -11 -4 -25 0 -14 -5 -31 -10 -39 -6
-10 -6 -12 3 -7 14 9 11 -30 -3 -53 -7 -10 -5 -12 4 -6 9 6 10 0 5 -25 -5 -25
-4 -31 5 -25 9 6 11 4 4 -6 -13 -21 -13 -79 0 -72 6 4 2 -4 -9 -17 -11 -13
-15 -21 -10 -18 7 4 10 -64 11 -202 0 -142 -3 -207 -11 -202 -6 4 -6 1 1 -9 6
-8 10 -47 10 -87 -1 -39 1 -72 4 -72 3 0 6 -30 7 -68 0 -37 4 -83 8 -102 3
-19 8 -42 9 -50 2 -8 6 -23 10 -32 4 -9 5 -22 1 -28 -3 -5 -2 -10 4 -10 6 0 8
-7 5 -15 -4 -8 -1 -15 6 -15 6 0 8 -5 5 -10 -4 -6 -1 -18 7 -27 11 -14 11 -16
-2 -8 -12 7 -13 6 -3 -7 7 -8 14 -27 15 -42 1 -14 6 -26 11 -26 5 0 7 -9 4
-19 -3 -12 1 -22 9 -25 8 -3 14 -17 14 -31 0 -14 5 -25 11 -25 5 0 7 -5 4 -10
-3 -6 -1 -10 4 -10 6 0 11 -6 11 -14 0 -22 40 -106 50 -106 6 0 9 -3 8 -7 -3
-14 13 -53 22 -53 9 0 25 -39 22 -53 -1 -4 1 -6 5 -6 20 3 26 -2 13 -11 -13
-8 -12 -10 3 -10 9 0 17 -4 17 -10 0 -5 11 -21 25 -35 14 -14 22 -25 18 -25
-4 0 0 -5 10 -11 9 -5 17 -17 17 -24 0 -8 8 -15 17 -15 9 0 14 -3 10 -6 -8 -9
16 -33 27 -26 5 3 6 0 3 -5 -7 -12 16 -36 26 -28 4 3 5 2 3 -1 -7 -9 17 -33
27 -27 4 2 7 -3 7 -11 0 -9 7 -16 16 -16 8 0 12 -4 9 -10 -3 -5 1 -10 10 -10
8 0 18 -7 21 -15 3 -8 14 -17 25 -20 11 -4 17 -11 14 -16 -3 -5 1 -6 9 -3 9 3
16 1 16 -5 0 -7 14 -17 30 -22 17 -6 30 -18 31 -27 0 -11 2 -13 6 -4 4 10 9 8
21 -5 10 -10 24 -19 32 -21 8 -2 17 -8 21 -13 3 -5 16 -11 29 -14 12 -2 32
-12 43 -22 11 -10 17 -12 13 -5 -12 20 4 14 26 -10 11 -13 16 -16 12 -8 -7 13
-5 13 9 1 9 -7 17 -10 17 -6 0 4 6 2 13 -4 8 -6 17 -8 20 -4 4 3 7 1 7 -5 0
-7 11 -12 25 -12 14 0 25 -4 25 -9 0 -6 9 -8 20 -6 11 2 22 -1 25 -6 4 -5 11
-6 17 -3 6 4 14 0 19 -7 8 -12 10 -12 18 0 5 8 10 9 12 3 2 -6 20 -13 39 -15
19 -3 35 -6 35 -7 0 -2 36 -6 100 -11 22 -1 43 -8 47 -13 5 -7 8 -6 8 3 0 11
3 11 17 0 11 -10 14 -10 9 -1 -4 7 -1 12 9 12 9 0 14 -4 11 -9 -6 -9 37 -7 53
4 6 3 11 1 11 -6 0 -10 3 -10 12 -1 16 16 31 15 22 0 -6 -10 -4 -10 8 0 12 9
18 10 23 2 5 -8 11 -8 20 0 8 6 22 11 32 10 10 -1 20 -1 23 0 6 2 60 9 110 14
33 3 72 16 114 38 12 6 16 6 12 0 -4 -6 6 -6 23 1 17 6 27 15 24 21 -3 5 -1 6
6 2 6 -4 25 0 42 8 17 9 35 14 39 11 4 -3 11 2 14 11 4 9 9 14 13 11 3 -4 12
1 20 11 8 9 11 11 8 3 -5 -9 1 -8 19 4 14 9 24 21 21 25 -3 5 4 6 15 3 12 -3
20 0 20 7 0 7 7 10 16 6 8 -3 12 -2 9 4 -7 11 29 32 40 22 5 -4 5 -2 2 4 -7
11 19 29 36 25 5 -1 6 2 3 7 -6 10 30 43 38 35 3 -4 6 -1 6 6 0 14 56 71 63
64 3 -2 8 4 11 15 4 11 14 23 22 26 9 3 12 11 8 18 -5 8 -2 9 10 5 10 -4 15
-3 11 3 -3 5 3 18 14 29 13 13 16 21 8 25 -7 2 -5 5 4 5 9 1 22 15 29 31 7 17
17 30 22 30 5 0 6 5 3 10 -3 6 -1 10 6 10 7 0 10 3 6 6 -3 4 1 13 9 21 8 9 13
22 10 29 -3 8 0 11 10 7 10 -4 12 0 7 13 -5 13 -3 15 8 9 11 -6 11 -5 2 5 -9
10 -8 16 3 27 8 8 12 19 9 24 -4 5 -1 9 6 9 7 0 4 7 -7 15 -19 15 -19 15 1 9
20 -7 20 -7 0 9 -21 16 -49 12 -38 -7 4 -6 -2 -4 -12 4 -15 12 -17 12 -10 1 6
-11 4 -13 -8 -8 -10 3 -17 3 -17 -1 0 -4 -12 -16 -27 -26 -14 -11 -23 -14 -19
-7 6 9 3 9 -13 -1 -12 -7 -21 -15 -21 -18 0 -3 -10 -7 -22 -7 -13 -1 -24 -7
-26 -13 -2 -5 -8 -8 -13 -4 -5 3 -9 1 -9 -5 0 -5 -8 -8 -17 -7 -10 2 -21 -1
-24 -7 -4 -5 -21 -10 -38 -11 -17 0 -31 -3 -31 -7 0 -6 -17 -9 -52 -10 -10 0
-18 -6 -18 -12 0 -7 -4 -6 -10 3 -5 8 -10 10 -10 5 0 -6 -22 -11 -50 -10 -28
0 -50 -3 -50 -6 0 -8 -65 -3 -78 5 -6 3 -13 3 -16 -2 -8 -13 -61 -6 -58 8 3
11 0 11 -12 0 -13 -10 -19 -10 -33 1 -11 10 -14 10 -9 2 4 -7 2 -13 -3 -13 -6
0 -11 6 -11 13 0 8 -4 7 -10 -3 -5 -8 -10 -10 -10 -4 0 10 -12 12 -87 17 -13
1 -23 6 -23 11 0 4 -7 6 -15 2 -8 -3 -19 2 -24 12 -8 13 -10 14 -11 3 0 -12
-3 -12 -12 -3 -7 7 -20 12 -30 12 -10 0 -18 4 -18 9 0 6 -9 8 -20 6 -11 -2
-20 0 -20 5 0 5 -12 13 -27 16 -16 4 -34 14 -41 23 -8 9 -11 10 -7 4 4 -9 1
-11 -9 -7 -9 3 -13 10 -10 15 5 8 -9 13 -28 10 -5 0 -8 3 -8 8 0 5 -9 11 -21
14 -14 4 -18 10 -13 19 4 7 4 10 -1 6 -4 -4 -14 0 -22 10 -8 9 -11 11 -7 3 4
-7 -14 7 -40 32 -25 25 -46 51 -46 58 0 7 -3 10 -6 6 -7 -7 -34 17 -34 31 0 6
-7 12 -15 16 -8 3 -15 12 -15 20 0 8 -12 24 -26 35 -15 12 -21 21 -13 21 8 0
10 3 4 8 -6 4 -17 21 -25 37 -8 17 -17 32 -20 35 -3 3 -11 16 -18 29 -11 19
-11 22 0 15 7 -4 5 2 -5 13 -9 11 -14 23 -10 26 3 4 1 7 -6 7 -7 0 -10 4 -6 9
3 5 1 12 -4 16 -5 3 -8 14 -6 25 2 11 0 20 -6 20 -5 0 -9 8 -9 18 0 10 -6 24
-12 31 -11 11 -10 12 2 6 12 -7 13 -6 3 6 -7 9 -13 30 -15 47 -1 18 -6 32 -11
32 -4 0 -6 4 -2 9 3 5 2 12 -2 14 -5 3 -7 20 -7 39 1 18 -4 39 -10 47 -9 12
-8 13 2 7 11 -7 12 -4 4 10 -5 11 -9 31 -8 47 1 15 -1 27 -4 27 -3 0 -5 50 -5
110 0 60 -3 110 -7 110 -4 0 -4 10 1 22 4 12 5 37 1 55 -5 18 -4 33 1 33 5 0
5 10 0 23 -6 14 -5 30 1 41 6 10 6 21 2 25 -13 9 -16 31 -4 31 6 0 6 9 1 23
-5 14 -5 30 0 40 7 12 6 17 -3 17 -8 0 -9 3 -2 10 6 6 8 31 4 60 -4 33 -3 50
4 50 7 0 8 3 1 8 -5 4 -11 18 -13 32 -5 43 -8 54 -21 78 -6 12 -9 27 -6 32 4
6 -1 13 -9 16 -9 3 -13 10 -10 15 3 5 0 9 -5 9 -6 0 -11 7 -11 14 0 8 -11 27
-25 42 -13 14 -22 32 -18 38 3 6 3 8 -2 4 -4 -4 -21 6 -38 23 -26 28 -40 35
-70 38 -5 1 -5 6 -2 11 3 6 -1 10 -9 10 -9 0 -16 4 -16 8 0 5 -7 9 -15 10 -8
1 -22 3 -30 4 -8 1 -15 5 -15 10 0 4 -3 7 -7 7 -29 -5 -73 3 -68 11 7 11 2 13
-8 3z"/>
<path d="M2326 2863 c-7 -8 -16 -9 -72 -12 -14 0 -22 -5 -19 -11 4 -6 -1 -7
-10 -3 -10 3 -21 0 -26 -8 -7 -11 -9 -11 -9 -1 0 10 -4 9 -16 -2 -8 -9 -20
-14 -25 -11 -5 4 -9 1 -9 -5 0 -6 -4 -8 -10 -5 -5 3 -10 -1 -10 -11 0 -11 -6
-15 -20 -11 -11 3 -23 0 -27 -5 -4 -7 -1 -8 8 -3 8 5 -2 -7 -21 -26 -19 -20
-38 -34 -42 -31 -5 2 -8 -2 -8 -8 0 -6 -9 -20 -20 -32 -11 -12 -20 -28 -20
-35 0 -7 -4 -13 -9 -13 -8 0 -24 -37 -22 -52 1 -5 -3 -8 -9 -8 -5 0 -7 -7 -4
-15 4 -8 1 -15 -4 -15 -6 0 -9 -9 -7 -20 2 -11 0 -22 -5 -25 -5 -3 -7 -14 -5
-25 2 -11 -1 -20 -6 -20 -6 0 -6 -6 0 -18 5 -10 6 -23 2 -30 -9 -15 -7 -105 3
-121 4 -6 2 -11 -3 -11 -12 0 -10 -27 2 -47 4 -6 1 -13 -5 -16 -10 -3 -10 -7
-1 -19 7 -8 10 -18 6 -21 -11 -11 -10 -77 2 -77 5 0 4 -4 -4 -9 -9 -6 -10 -11
-2 -15 7 -5 8 -14 3 -24 -10 -19 -8 -104 2 -120 3 -6 1 -12 -5 -14 -7 -2 -7
-12 0 -31 8 -21 8 -26 -1 -21 -6 4 -8 3 -5 -3 6 -10 18 -58 19 -80 1 -7 5 -13
10 -13 5 0 7 -4 3 -9 -3 -5 -1 -12 5 -16 6 -4 8 -11 5 -16 -4 -5 -2 -9 4 -9 5
0 11 -10 13 -22 2 -13 9 -22 16 -20 8 1 11 -2 8 -7 -3 -5 1 -14 9 -21 8 -7 12
-17 8 -24 -3 -6 -3 -8 1 -4 5 4 21 -6 36 -22 15 -16 31 -26 34 -23 3 4 6 -1 6
-11 0 -9 4 -15 9 -12 5 4 11 1 13 -4 2 -6 12 -13 23 -14 11 -2 19 -10 17 -17
-2 -8 -1 -11 3 -7 4 3 21 0 40 -7 18 -8 35 -11 39 -8 3 4 6 1 6 -5 0 -7 10
-11 23 -11 27 1 83 -8 95 -15 4 -2 14 -1 22 4 9 5 20 4 29 -3 12 -10 13 -9 6
2 -6 11 -2 13 19 9 14 -3 26 -1 26 4 0 5 5 6 11 3 5 -4 20 1 31 12 12 10 18
12 14 6 -10 -18 9 -16 24 2 7 8 20 15 30 15 9 0 30 12 45 26 15 14 36 26 46
27 10 1 16 4 13 8 -2 4 13 24 33 45 20 22 33 33 28 25 -5 -9 -4 -12 3 -7 6 4
9 13 5 21 -3 8 0 15 7 15 7 0 10 7 6 15 -3 8 0 14 6 12 7 -1 13 3 13 8 1 6 8
24 15 40 7 17 12 38 11 48 -1 9 1 17 6 17 5 0 8 17 7 38 -1 20 3 43 9 51 9 11
9 13 1 8 -13 -8 -14 60 -1 80 4 6 2 15 -4 19 -8 4 -7 9 2 15 10 6 11 9 2 9 -7
0 -13 7 -13 15 0 8 6 15 13 15 9 0 9 2 -1 9 -8 4 -14 12 -14 16 0 4 6 12 14
16 10 7 10 9 1 9 -7 0 -13 5 -13 11 0 5 6 7 13 3 7 -5 7 -1 -2 10 -13 15 -13
19 0 27 8 5 9 9 4 9 -6 0 -11 16 -12 35 0 22 3 32 10 28 6 -4 7 -1 1 8 -13 21
-14 80 0 72 7 -4 6 -1 -1 8 -10 12 -10 18 0 29 9 10 9 11 0 6 -8 -4 -13 -2
-13 6 0 8 6 20 13 27 8 9 8 12 0 7 -8 -4 -11 4 -11 26 0 18 -1 35 -2 38 -2 3
-3 16 -4 30 -1 14 -7 34 -13 45 -6 11 -9 28 -8 38 2 9 -3 17 -10 17 -8 0 -12
8 -10 19 2 11 -3 22 -12 25 -9 4 -13 9 -11 12 3 3 -7 19 -23 36 -15 17 -26 35
-23 40 3 4 -2 8 -10 8 -9 0 -16 5 -16 10 0 6 -7 10 -17 10 -9 0 -14 3 -10 6 8
8 -75 64 -85 58 -4 -3 -8 -1 -8 4 0 5 -7 9 -15 10 -8 1 -22 3 -30 4 -8 1 -15
6 -15 11 0 5 -7 7 -15 4 -8 -4 -17 -2 -20 3 -3 5 -12 7 -20 3 -9 -3 -21 0 -28
5 -8 7 -18 7 -27 2 -9 -5 -17 -5 -20 1 -4 5 -10 6 -14 2z"/>
</g>
</svg>
